<svg style="height: 282.5px; width: 775px" id="synth"><rect class="tone" width="55" height="280" rx="10" stroke="black" stroke-width="3" fill="white" x="1.25" y="1.25"/><rect class="tone" width="55" height="280" rx="10" stroke="black" stroke-width="3" fill="white" x="56.25" y="1.25"/><rect class="semi-tone" width="35" height="180" stroke="black" stroke-width="3" fill="black" x="38.75" y="1.25"/><rect class="tone" width="55" height="280" rx="10" stroke="black" stroke-width="3" fill="white" x="111.25" y="1.25"/><rect class="semi-tone" width="35" height="180" stroke="black" stroke-width="3" fill="black" x="93.75" y="1.25"/><rect class="tone" width="55" height="280" rx="10" stroke="black" stroke-width="3" fill="white" x="166.25" y="1.25"/><rect class="tone" width="55" height="280" rx="10" stroke="black" stroke-width="3" fill="white" x="221.25" y="1.25"/><rect class="semi-tone" width="35" height="180" stroke="black" stroke-width="3" fill="black" x="203.75" y="1.25"/><rect class="tone" width="55" height="280" rx="10" stroke="black" stroke-width="3" fill="white" x="276.25" y="1.25"/><rect class="semi-tone" width="35" height="180" stroke="black" stroke-width="3" fill="black" x="258.75" y="1.25"/><rect class="tone" width="55" height="280" rx="10" stroke="black" stroke-width="3" fill="white" x="331.25" y="1.25"/><rect class="semi-tone" width="35" height="180" stroke="black" stroke-width="3" fill="black" x="312.75" y="1.25"/>

<rect class="tone" width="55" height="280" rx="10" stroke="black" stroke-width="3" fill="white" x="386.25" y="1.25"/><rect class="tone" width="55" height="280" rx="10" stroke="black" stroke-width="3" fill="white" x="441.25" y="1.25"/><rect class="semi-tone" width="35" height="180" stroke="black" stroke-width="3" fill="black" x="423.125" y="1.25"/><rect class="tone" width="55" height="280" rx="10" stroke="black" stroke-width="3" fill="white" x="496.25" y="1.25"/><rect class="semi-tone" width="35" height="180" stroke="black" stroke-width="3" fill="black" x="478.125" y="1.25"/><rect class="tone" width="55" height="280" rx="10" stroke="black" stroke-width="3" fill="white" x="551.25" y="1.25"/><rect class="tone" width="55" height="280" rx="10" stroke="black" stroke-width="3" fill="white" x="606.25" y="1.25"/><rect class="semi-tone" width="35" height="180" stroke="black" stroke-width="3" fill="black" x="590" y="1.25"/><rect class="tone" width="55" height="280" rx="10" stroke="black" stroke-width="3" fill="white" x="661.25" y="1.25"/><rect class="semi-tone" width="35" height="180" stroke="black" stroke-width="3" fill="black" x="645" y="1.25"/><rect class="tone" width="55" height="280" rx="10" stroke="black" stroke-width="3" fill="white" x="716.25" y="1.25"/><rect class="semi-tone" width="35" height="180" stroke="black" stroke-width="3" fill="black" x="700" y="1.25"/>

</svg>
